<svg width="32" height="32" viewBox="0 0 32 32" fill="none" xmlns="http://www.w3.org/2000/svg">
<g clip-path="url(#clip0_304_10)">
<path d="M8.0996 3.23958C8.6494 3.23944 9.1978 3.29499 9.73641 3.40539C10.7759 3.61949 11.7629 4.0369 12.6405 4.63365C13.8565 5.45779 14.828 6.59427 15.4529 7.92363C16.0779 9.25299 16.3332 10.7261 16.192 12.1883C16.0509 13.6504 15.5184 15.0475 14.6507 16.2328C13.783 17.418 12.6121 18.3477 11.2609 18.924C10.7697 19.1327 10.259 19.292 9.73633 19.3997C8.6029 19.6295 7.4335 19.6152 6.30604 19.3576C5.17858 19.1001 4.11893 18.6053 3.1977 17.9061C2.27646 17.2069 1.51478 16.3195 0.963399 15.3029C0.412015 14.2863 0.0835847 13.1639 -1.38458e-05 12.0104C0.888749 12.2184 1.81198 12.2318 2.70639 12.0496C3.509 11.8853 4.27138 11.5645 4.95004 11.1055C5.95887 10.4245 6.74853 9.46547 7.22334 8.3447C7.38378 7.96512 7.50623 7.57059 7.58892 7.16687C7.76516 6.30186 7.75864 5.40956 7.56978 4.54721C7.47477 4.11601 7.33427 3.69611 7.15064 3.29456C7.46563 3.25791 7.78248 3.23955 8.0996 3.23958V3.23958Z" fill="#713FFD"/>
<path d="M23.7595 28.7604H6.48787C4.81239 28.7591 3.20235 28.1098 1.99481 26.9483C0.787267 25.7868 0.0758512 24.2032 0.00949055 22.529C-0.0568701 20.8548 0.52697 19.2199 1.63879 17.9664C2.7506 16.713 4.30419 15.9382 5.97432 15.8043C6.21249 14.1226 6.97193 12.5578 8.14579 11.3302C9.31965 10.1025 10.8489 9.2738 12.5183 8.96058C14.1877 8.64736 15.9133 8.86541 17.4523 9.58406C18.9913 10.3027 20.2663 11.4858 21.0979 12.9668C22.6232 12.4388 24.2711 12.3772 25.8316 12.7896C27.392 13.2021 28.7942 14.07 29.8593 15.2827C30.9245 16.4954 31.6042 17.9979 31.8119 19.5985C32.0196 21.1992 31.7458 22.8254 31.0254 24.2697C30.6026 25.5747 29.7774 26.7122 28.668 27.5189C27.5586 28.3257 26.2222 28.7603 24.8505 28.7604H23.7595Z" fill="url(#paint0_linear_304_10)"/>
</g>
<defs>
<linearGradient id="paint0_linear_304_10" x1="15.9419" y1="8.82129" x2="25.2027" y2="31.2115" gradientUnits="userSpaceOnUse">
<stop stop-color="#E88E9B"/>
<stop offset="1" stop-color="#B97CA5"/>
</linearGradient>
<clipPath id="clip0_304_10">
<rect width="31.88" height="32" fill="white"/>
</clipPath>
</defs>
</svg>
