<svg width="167" height="35" viewBox="0 0 167 35" fill="none" xmlns="http://www.w3.org/2000/svg">
<path fill-rule="evenodd" clip-rule="evenodd" d="M0.632969 5.8262C0 7.35432 0 9.29155 0 13.166V21.4814C0 25.3558 0 27.2931 0.632969 28.8212C1.47693 30.8587 3.09571 32.4775 5.13321 33.3214C6.66133 33.9544 8.59856 33.9544 12.473 33.9544H20.7884C24.6629 33.9544 26.6001 33.9544 28.1282 33.3214C30.1657 32.4775 31.7845 30.8587 32.6284 28.8212C33.2614 27.2931 33.2614 25.3558 33.2614 21.4814V13.166C33.2614 9.29155 33.2614 7.35432 32.6284 5.8262C31.7845 3.7887 30.1657 2.16992 28.1282 1.32596C26.6001 0.692993 24.6629 0.692993 20.7884 0.692993H12.473C8.59856 0.692993 6.66133 0.692993 5.13321 1.32596C3.09571 2.16992 1.47693 3.7887 0.632969 5.8262ZM19.1819 9.7994C19.2176 9.67002 19.0669 9.57051 18.9619 9.65415L9.67958 17.05C9.591 17.1205 9.61989 17.2618 9.72908 17.292L14.677 18.6573C14.7508 18.6776 14.7941 18.7539 14.7737 18.8277L13.2036 24.5178C13.1679 24.6472 13.3186 24.7467 13.4236 24.663L22.7059 17.2672C22.7945 17.1966 22.7656 17.0554 22.6564 17.0252L17.7085 15.6599C17.6347 15.6396 17.5914 15.5633 17.6118 15.4895L19.1819 9.7994Z" fill="white"/>
<path d="M46.1006 28H50.3626V19.6728H59.0146V28H63.2668V7.84157H59.0146V16.1589H50.3626V7.84157H46.1006V28ZM66.3555 28H70.5486V12.8812H66.3555V28ZM68.4619 10.9323C69.712 10.9323 70.7356 9.9775 70.7356 8.80618C70.7356 7.64471 69.712 6.68994 68.4619 6.68994C67.2217 6.68994 66.198 7.64471 66.198 8.80618C66.198 9.9775 67.2217 10.9323 68.4619 10.9323ZM73.5611 33.6696H77.7542V25.5786H77.8821C78.4629 26.8385 79.7326 28.2461 82.1737 28.2461C85.6187 28.2461 88.3059 25.5196 88.3059 20.4603C88.3059 15.2632 85.5006 12.6843 82.1835 12.6843C79.6539 12.6843 78.4432 14.1903 77.8821 15.4207H77.6951V12.8812H73.5611V33.6696ZM77.6656 20.4406C77.6656 17.7436 78.8074 16.0211 80.8449 16.0211C82.9217 16.0211 84.0242 17.8224 84.0242 20.4406C84.0242 23.0785 82.9021 24.9093 80.8449 24.9093C78.8271 24.9093 77.6656 23.1376 77.6656 20.4406ZM94.9479 19.2594C94.9578 17.3105 96.1488 16.1687 97.8614 16.1687C99.5643 16.1687 100.568 17.2613 100.558 19.1216V28H104.752V18.3736C104.761 14.8301 102.675 12.6843 99.5249 12.6843C97.2315 12.6843 95.696 13.767 95.007 15.5486H94.8298V7.84157H90.7548V28H94.9479V19.2594ZM114.536 28.2953C119.123 28.2953 121.977 25.1554 121.977 20.4996C121.977 15.8144 119.123 12.6843 114.536 12.6843C109.949 12.6843 107.095 15.8144 107.095 20.4996C107.095 25.1554 109.949 28.2953 114.536 28.2953ZM114.556 25.0471C112.439 25.0471 111.357 23.108 111.357 20.4701C111.357 17.8322 112.439 15.8833 114.556 15.8833C116.632 15.8833 117.715 17.8322 117.715 20.4701C117.715 23.108 116.632 25.0471 114.556 25.0471ZM128.55 19.2594C128.56 17.3105 129.722 16.1687 131.415 16.1687C133.098 16.1687 134.112 17.2711 134.102 19.1216V28H138.295V18.3736C138.295 14.8498 136.228 12.6843 133.078 12.6843C130.834 12.6843 129.21 13.7867 128.531 15.5486H128.354V12.8812H124.357V28H128.55V19.2594ZM141.253 28H145.446V12.8812H141.253V28ZM143.36 10.9323C144.61 10.9323 145.633 9.9775 145.633 8.80618C145.633 7.64471 144.61 6.68994 143.36 6.68994C142.119 6.68994 141.096 7.64471 141.096 8.80618C141.096 9.9775 142.119 10.9323 143.36 10.9323ZM155.29 28.2953C159.316 28.2953 161.845 25.933 162.042 22.4584H158.085C157.839 24.0726 156.776 24.9782 155.339 24.9782C153.38 24.9782 152.111 23.3344 152.111 20.4406C152.111 17.5861 153.39 15.9522 155.339 15.9522C156.875 15.9522 157.859 16.966 158.085 18.472H162.042C161.865 14.9777 159.217 12.6843 155.27 12.6843C150.683 12.6843 147.849 15.8636 147.849 20.4996C147.849 25.0963 150.634 28.2953 155.29 28.2953Z" fill="white"/>
</svg>
