<svg width="140" height="29" viewBox="0 0 140 29" fill="none" xmlns="http://www.w3.org/2000/svg">
<path fill-rule="evenodd" clip-rule="evenodd" d="M0.529798 4.87651C0 6.15556 0 7.77703 0 11.02V17.98C0 21.2229 0 22.8444 0.529798 24.1235C1.2362 25.8289 2.59113 27.1838 4.29652 27.8902C5.57557 28.42 7.19704 28.42 10.44 28.42H17.4C20.643 28.42 22.2644 28.42 23.5435 27.8902C25.2489 27.1838 26.6038 25.8289 27.3102 24.1235C27.84 22.8444 27.84 21.2229 27.84 17.98V11.02C27.84 7.77703 27.84 6.15556 27.3102 4.87651C26.6038 3.17111 25.2489 1.81618 23.5435 1.10979C22.2644 0.579987 20.643 0.579987 17.4 0.579987H10.44C7.19705 0.579987 5.57557 0.579987 4.29652 1.10979C2.59113 1.81618 1.2362 3.17111 0.529798 4.87651ZM16.0557 8.20217C16.0856 8.09387 15.9594 8.01058 15.8716 8.08059L8.10221 14.2709C8.02806 14.33 8.05225 14.4483 8.14364 14.4735L12.2851 15.6162C12.3468 15.6333 12.3831 15.6972 12.366 15.7589L11.0519 20.5215C11.022 20.6298 11.1481 20.7131 11.236 20.6431L19.0053 14.4528C19.0795 14.3937 19.0553 14.2755 18.9639 14.2502L14.8225 13.1075C14.7607 13.0904 14.7245 13.0265 14.7415 12.9648L16.0557 8.20217Z" fill="#2563EB"/>
<path d="M38.5856 23V6.12727H42.1529V13.0889H49.3947V6.12727H52.9538V23H49.3947V16.0301H42.1529V23H38.5856ZM55.5391 23V10.3455H59.0487V23H55.5391ZM57.3021 8.7142C56.7804 8.7142 56.3327 8.54119 55.9593 8.19517C55.5913 7.84366 55.4073 7.42349 55.4073 6.93466C55.4073 6.45133 55.5913 6.03665 55.9593 5.69063C56.3327 5.33911 56.7804 5.16335 57.3021 5.16335C57.8239 5.16335 58.2688 5.33911 58.6368 5.69063C59.0103 6.03665 59.197 6.45133 59.197 6.93466C59.197 7.42349 59.0103 7.84366 58.6368 8.19517C58.2688 8.54119 57.8239 8.7142 57.3021 8.7142ZM61.5702 27.7455V10.3455H65.0304V12.471H65.1869C65.3407 12.1305 65.5632 11.7845 65.8543 11.433C66.1509 11.0759 66.5353 10.7794 67.0077 10.5432C67.4855 10.3015 68.0787 10.1807 68.7872 10.1807C69.7099 10.1807 70.5613 10.4223 71.3412 10.9057C72.1211 11.3835 72.7445 12.1058 73.2114 13.0724C73.6782 14.0336 73.9117 15.2392 73.9117 16.6892C73.9117 18.1008 73.6837 19.2926 73.2278 20.2648C72.7775 21.2314 72.1623 21.9647 71.3824 22.4645C70.608 22.9588 69.7402 23.206 68.779 23.206C68.0979 23.206 67.5185 23.0934 67.0406 22.8682C66.5683 22.643 66.1811 22.3601 65.879 22.0196C65.5769 21.6736 65.3462 21.3248 65.1869 20.9733H65.0798V27.7455H61.5702ZM65.0057 16.6727C65.0057 17.4252 65.11 18.0815 65.3188 18.6418C65.5275 19.202 65.8296 19.6386 66.225 19.9517C66.6205 20.2593 67.101 20.4131 67.6668 20.4131C68.238 20.4131 68.7213 20.2565 69.1168 19.9435C69.5122 19.6249 69.8116 19.1855 70.0148 18.6253C70.2235 18.0596 70.3278 17.4087 70.3278 16.6727C70.3278 15.9422 70.2262 15.2996 70.023 14.7449C69.8198 14.1902 69.5205 13.7563 69.125 13.4432C68.7296 13.1301 68.2435 12.9736 67.6668 12.9736C67.0956 12.9736 66.6122 13.1246 66.2168 13.4267C65.8268 13.7288 65.5275 14.1572 65.3188 14.7119C65.11 15.2667 65.0057 15.9203 65.0057 16.6727ZM79.4711 15.6841V23H75.9614V6.12727H79.3722V12.5781H79.5205C79.8061 11.8312 80.2675 11.2462 80.9046 10.8233C81.5417 10.3949 82.3409 10.1807 83.302 10.1807C84.1808 10.1807 84.947 10.3729 85.6006 10.7574C86.2597 11.1364 86.7705 11.6829 87.133 12.3969C87.501 13.1054 87.6823 13.954 87.6768 14.9426V23H84.1671V15.5688C84.1726 14.7888 83.9749 14.1819 83.5739 13.748C83.1785 13.3141 82.6237 13.0972 81.9097 13.0972C81.4319 13.0972 81.009 13.1988 80.641 13.402C80.2785 13.6052 79.9929 13.9018 79.7842 14.2918C79.5809 14.6762 79.4766 15.1403 79.4711 15.6841ZM95.8664 23.2472C94.5866 23.2472 93.4799 22.9753 92.5462 22.4315C91.618 21.8823 90.9012 21.1188 90.3959 20.1412C89.8906 19.158 89.638 18.0184 89.638 16.7222C89.638 15.415 89.8906 14.2725 90.3959 13.2949C90.9012 12.3117 91.618 11.5483 92.5462 11.0045C93.4799 10.4553 94.5866 10.1807 95.8664 10.1807C97.1461 10.1807 98.2501 10.4553 99.1783 11.0045C100.112 11.5483 100.832 12.3117 101.337 13.2949C101.842 14.2725 102.095 15.415 102.095 16.7222C102.095 18.0184 101.842 19.158 101.337 20.1412C100.832 21.1188 100.112 21.8823 99.1783 22.4315C98.2501 22.9753 97.1461 23.2472 95.8664 23.2472ZM95.8829 20.5284C96.4651 20.5284 96.9511 20.3636 97.3411 20.0341C97.7311 19.6991 98.0249 19.2432 98.2226 18.6665C98.4259 18.0898 98.5275 17.4334 98.5275 16.6974C98.5275 15.9615 98.4259 15.3051 98.2226 14.7284C98.0249 14.1517 97.7311 13.6958 97.3411 13.3608C96.9511 13.0258 96.4651 12.8582 95.8829 12.8582C95.2952 12.8582 94.8009 13.0258 94.3999 13.3608C94.0044 13.6958 93.7051 14.1517 93.5019 14.7284C93.3042 15.3051 93.2053 15.9615 93.2053 16.6974C93.2053 17.4334 93.3042 18.0898 93.5019 18.6665C93.7051 19.2432 94.0044 19.6991 94.3999 20.0341C94.8009 20.3636 95.2952 20.5284 95.8829 20.5284ZM107.597 15.6841V23H104.087V10.3455H107.432V12.5781H107.58C107.86 11.8421 108.33 11.2599 108.989 10.8315C109.648 10.3976 110.447 10.1807 111.386 10.1807C112.265 10.1807 113.031 10.3729 113.685 10.7574C114.339 11.1419 114.847 11.6911 115.209 12.4051C115.572 13.1136 115.753 13.9595 115.753 14.9426V23H112.243V15.5688C112.249 14.7943 112.051 14.1902 111.65 13.7563C111.249 13.3169 110.697 13.0972 109.994 13.0972C109.522 13.0972 109.104 13.1988 108.742 13.402C108.385 13.6052 108.105 13.9018 107.901 14.2918C107.704 14.6762 107.602 15.1403 107.597 15.6841ZM118.229 23V10.3455H121.739V23H118.229ZM119.992 8.7142C119.47 8.7142 119.023 8.54119 118.649 8.19517C118.281 7.84366 118.097 7.42349 118.097 6.93466C118.097 6.45133 118.281 6.03665 118.649 5.69063C119.023 5.33911 119.47 5.16335 119.992 5.16335C120.514 5.16335 120.959 5.33911 121.327 5.69063C121.7 6.03665 121.887 6.45133 121.887 6.93466C121.887 7.42349 121.7 7.84366 121.327 8.19517C120.959 8.54119 120.514 8.7142 119.992 8.7142ZM129.978 23.2472C128.681 23.2472 127.566 22.9725 126.633 22.4233C125.705 21.8686 124.991 21.0996 124.491 20.1165C123.996 19.1333 123.749 18.0019 123.749 16.7222C123.749 15.4259 123.999 14.289 124.499 13.3114C125.004 12.3282 125.721 11.562 126.649 11.0128C127.577 10.458 128.681 10.1807 129.961 10.1807C131.065 10.1807 132.032 10.3812 132.861 10.7821C133.691 11.183 134.347 11.746 134.83 12.471C135.314 13.196 135.58 14.0473 135.629 15.025H132.317C132.224 14.3934 131.977 13.8853 131.576 13.5009C131.18 13.1109 130.661 12.9159 130.019 12.9159C129.475 12.9159 129 13.0642 128.594 13.3608C128.193 13.6519 127.88 14.0776 127.654 14.6378C127.429 15.198 127.317 15.8763 127.317 16.6727C127.317 17.4801 127.426 18.1667 127.646 18.7324C127.871 19.2981 128.187 19.7293 128.594 20.0259C129 20.3224 129.475 20.4707 130.019 20.4707C130.42 20.4707 130.78 20.3884 131.098 20.2236C131.422 20.0588 131.689 19.8199 131.897 19.5068C132.111 19.1883 132.251 18.8065 132.317 18.3616H135.629C135.574 19.3283 135.311 20.1796 134.838 20.9156C134.372 21.6461 133.726 22.2173 132.902 22.6293C132.078 23.0412 131.104 23.2472 129.978 23.2472Z" fill="#0F172A"/>
</svg>
