<svg viewBox="0 0 21 20" fill="none" xmlns="http://www.w3.org/2000/svg">
<path d="M19.0009 10.1944C19.0009 9.47495 18.9413 8.94995 18.8124 8.40552H10.4295V11.6527H15.35C15.2509 12.4597 14.7152 13.675 13.5247 14.4916L13.508 14.6003L16.1585 16.6126L16.3421 16.6305C18.0286 15.1041 19.0009 12.8583 19.0009 10.1944Z" fill="#4285F4"/>
<path d="M10.4289 18.75C12.8396 18.75 14.8633 17.9722 16.3416 16.6305L13.5241 14.4916C12.7701 15.0068 11.7582 15.3666 10.4289 15.3666C8.06781 15.3666 6.06386 13.8402 5.34951 11.7305L5.2448 11.7392L2.48876 13.8295L2.45271 13.9277C3.92095 16.786 6.93681 18.75 10.4289 18.75Z" fill="#34A853"/>
<path d="M5.35003 11.7306C5.16155 11.1862 5.05246 10.6028 5.05246 10C5.05246 9.39722 5.16155 8.81391 5.34012 8.26948L5.33512 8.15352L2.54453 6.02966L2.45323 6.07222C1.8481 7.25835 1.50087 8.59032 1.50087 10C1.50087 11.4098 1.8481 12.7417 2.45323 13.9278L5.35003 11.7306Z" fill="#FBBC05"/>
<path d="M10.4289 4.63331C12.1055 4.63331 13.2364 5.34303 13.8813 5.93613L16.4011 3.525C14.8536 2.11528 12.8396 1.25 10.4289 1.25C6.93684 1.25 3.92095 3.21387 2.45271 6.07218L5.33961 8.26944C6.06388 6.15972 8.06784 4.63331 10.4289 4.63331Z" fill="#EB4335"/>
</svg>
